# xmcd CD database file generated by OrangeCD 4.2
#
# Track frame offsets:
#	150
#	21092
#	38757
#	63862
#	75165
#	86790
#	99420
#	120425
#	140775
#	161382
#	176957
#	197747
#	203850
#
# Disc length: 2967 seconds
#
# Revision: 2
# Processed by: cddbd v1.4PL0 Copyright (c) Steve Scherf et al.
# Submitted via: OrangeCD 4.2
#
DISCID=a50b950d
DTITLE=Q. Stone - Q. Stone
DYEAR=1988
DGENRE=Gospel
TTITLE0=Blue View
TTITLE1=Sweet Dreams
TTITLE2=You Did It For Me
TTITLE3=Open Door
TTITLE4=Blues Man
TTITLE5=Black Water
TTITLE6=High Winds
TTITLE7=Behind The Bars
TTITLE8=And I Wait
TTITLE9=Tomorrow With You
TTITLE10=Give Me Something Else
TTITLE11=Zack's Blues
TTITLE12=Dead Man At Dawn
EXTD=
EXTT0=
EXTT1=
EXTT2=
EXTT3=
EXTT4=
EXTT5=
EXTT6=
EXTT7=
EXTT8=
EXTT9=
EXTT10=
EXTT11=
EXTT12=
PLAYORDER=
